<svg width="56" height="56" viewBox="0 0 56 56" fill="none" xmlns="http://www.w3.org/2000/svg">
<rect width="56" height="56" fill="#EAF2FA"/>
<path d="M32.1999 29.6C32.1999 31.9196 30.3187 33.8 27.9999 33.8C25.6812 33.8 23.7999 31.9196 23.7999 29.6C23.7999 27.2804 25.6812 25.4 27.9999 25.4C30.3187 25.4 32.1999 27.2804 32.1999 29.6Z" fill="#0080FF"/>
<path fill-rule="evenodd" clip-rule="evenodd" d="M23.5784 17.7347C23.5401 17.8051 23.5073 17.8795 23.48 17.9573L22.3999 21.2H18.1999C16.6522 21.2 15.3999 22.4536 15.3999 24V35.2C15.3999 36.7464 16.6522 38 18.1999 38H37.7999C39.3476 38 40.5999 36.7464 40.5999 35.2V24C40.5999 22.4536 39.3476 21.2 37.7999 21.2H33.5999L32.5198 17.9573C32.3284 17.3856 31.7925 17 31.1909 17H24.8089C24.5382 17 24.2784 17.0786 24.0597 17.2174C23.8601 17.3442 23.6933 17.5213 23.5784 17.7347ZM34.9999 24.7C35.3855 24.7 35.6999 24.3866 35.6999 24C35.6999 23.8885 35.6726 23.7831 35.6261 23.6896C35.514 23.4587 35.2733 23.3 34.9999 23.3C34.6144 23.3 34.2999 23.6134 34.2999 24C34.2999 24.1274 34.3327 24.2467 34.3929 24.3496C34.4202 24.3955 34.4503 24.4381 34.4858 24.4767C34.5487 24.5425 34.6226 24.5965 34.7046 24.6349C34.7948 24.6767 34.8933 24.7 34.9999 24.7ZM33.5999 29.6C33.5999 32.6928 31.0925 35.2 27.9999 35.2C24.9073 35.2 22.3999 32.6928 22.3999 29.6C22.3999 26.5072 24.9073 24 27.9999 24C31.0925 24 33.5999 26.5072 33.5999 29.6Z" fill="#0080FF"/>
<path d="M18.8999 19.1C18.5144 19.1 18.1999 19.4134 18.1999 19.8V20.5H20.9999V19.8C20.9999 19.4134 20.6854 19.1 20.2999 19.1H18.8999Z" fill="#0080FF"/>
</svg>
