<svg width="29" height="24" viewBox="0 0 29 24" fill="none" xmlns="http://www.w3.org/2000/svg">
<path d="M10.5 10C10.5 9.17157 11.1716 8.5 12 8.5C12.8284 8.5 13.5 9.17157 13.5 10V10.5C13.5 11.3284 12.8284 12 12 12C11.1716 12 10.5 11.3284 10.5 10.5V10Z" fill="white"/>
<path d="M17 8.5C16.1716 8.5 15.5 9.17157 15.5 10V10.5C15.5 11.3284 16.1716 12 17 12C17.8284 12 18.5 11.3284 18.5 10.5V10C18.5 9.17157 17.8284 8.5 17 8.5Z" fill="white"/>
<path fill-rule="evenodd" clip-rule="evenodd" d="M5.99995 10.5C5.99995 5.80557 9.80561 2 14.4999 2C19.1943 2 22.9999 5.80557 22.9999 10.5V19C22.9999 20.6569 21.6567 22 19.9999 22H4.20698C3.76167 22 3.53852 21.4614 3.85347 21.1465L5.41401 19.5858C5.78901 19.2107 5.99995 18.702 5.99995 18.1716V10.5ZM14.4999 4C10.9101 4 7.99995 6.91016 7.99995 10.5V12.5C7.99995 13.6046 8.89546 14.5 9.99995 14.5H19C20.1044 14.5 20.9999 13.6046 20.9999 12.5V10.5C20.9999 6.91016 18.0898 4 14.4999 4Z" fill="white"/>
<path d="M1.5 10.5C1.5 9.67157 2.17157 9 3 9C3.82843 9 4.5 9.67157 4.5 10.5V16.5C4.5 17.3284 3.82843 18 3 18C2.17157 18 1.5 17.3284 1.5 16.5V10.5Z" fill="white"/>
<path d="M26 9C25.1716 9 24.5 9.67157 24.5 10.5V16.5C24.5 17.3284 25.1716 18 26 18C26.8284 18 27.5 17.3284 27.5 16.5V10.5C27.5 9.67157 26.8284 9 26 9Z" fill="white"/>
</svg>
