<svg width="29" height="24" viewBox="0 0 29 24" fill="none" xmlns="http://www.w3.org/2000/svg">
<path d="M4.5 9.46137C4.5 7.37356 6.17893 5.68107 8.25 5.68107L14.75 5.68107C15.4404 5.68107 16 6.24523 16 6.94117L16 13.2399C16 13.9358 15.4404 14.5 14.75 14.5L8.25 14.5C6.17893 14.5 4.5 13.0694 4.5 10.9816L4.5 9.46137Z" fill="white"/>
<path d="M17.5 7C17.5 6.2344 17.8452 5.51032 18.4383 5.03206L22.4691 2.27849C23.2876 1.61844 24.5 2.20586 24.5 3.26246L24.5 16.7344C24.5 17.791 23.2876 18.3784 22.4691 17.7184L18.4383 15.1802C17.8452 14.7019 17.5 13.9778 17.5 13.2122V7Z" fill="white"/>
<path d="M9.31235 17.0456C8.98497 16.6331 9.27632 16.022 9.80039 16.022H13.774C14.3476 16.022 14.8476 16.4155 14.9867 16.9764L15.7568 20.0817C15.8989 20.6547 15.6272 21.2503 15.1031 21.5144L14.4038 21.8669C13.8766 22.1326 13.2369 21.991 12.8687 21.527L9.31235 17.0456Z" fill="white"/>
</svg>
