<svg width="15" height="14" viewBox="0 0 15 14" fill="none" xmlns="http://www.w3.org/2000/svg">
<path d="M5.21051 7.22395L4.44327 9.52566C4.37812 9.7211 4.56406 9.90703 4.7595 9.84189L7.0612 9.07465C7.20848 9.02556 7.34231 8.94285 7.45208 8.83308L11.2852 5L9.28516 3L5.45208 6.83307C5.34231 6.94285 5.2596 7.07668 5.21051 7.22395Z" fill="#0080FF"/>
<path d="M12.2852 4L10.2852 2L10.578 1.70711C10.9686 1.31658 11.6017 1.31658 11.9923 1.70711L12.578 2.29289C12.9686 2.68342 12.9686 3.31658 12.578 3.70711L12.2852 4Z" fill="#0080FF"/>
<path d="M6.08516 1H3.28515C2.18059 1 1.28516 1.89543 1.28516 3V11C1.28516 12.1046 2.18059 13 3.28516 13H11.2852C12.3897 13 13.2852 12.1046 13.2852 11V8.2" stroke="#0080FF" stroke-width="1.4" stroke-linecap="round" stroke-linejoin="round"/>
</svg>
