<svg width="29" height="24" viewBox="0 0 29 24" fill="none" xmlns="http://www.w3.org/2000/svg">
<path d="M13 6.75C13 8.82104 11.3213 10.5 9.25 10.5C7.17871 10.5 5.5 8.82104 5.5 6.75C5.5 4.67896 7.17871 3 9.25 3C11.3213 3 13 4.67896 13 6.75Z" fill="white"/>
<path d="M2.5 16.25C2.5 13.9028 4.40283 12 6.75 12H11.75C14.0972 12 16 13.9028 16 16.25V21H3.5C2.94772 21 2.5 20.5523 2.5 20V16.25Z" fill="white"/>
<path d="M19.75 10.5C21.8213 10.5 23.5 8.82104 23.5 6.75C23.5 4.67896 21.8213 3 19.75 3C17.6787 3 16 4.67896 16 6.75C16 8.82104 17.6787 10.5 19.75 10.5Z" fill="white"/>
<path d="M26.5 20C26.5 20.5523 26.0523 21 25.5 21H17.5V16.25C17.5 14.6087 16.8672 13.1152 15.8325 12H22.25C24.5972 12 26.5 13.9028 26.5 16.25V20Z" fill="white"/>
</svg>
