<svg width="77" height="64" viewBox="0 0 77 64" fill="none" xmlns="http://www.w3.org/2000/svg">
<path d="M11.4961 44.0094C11.5193 44.3733 11.5453 44.7256 11.5744 45.0673C11.8386 48.1742 12.3318 49.9667 13.0594 51.3279C14.4479 53.9256 16.5755 56.0531 19.1731 57.4416C20.5343 58.1692 22.3268 58.6624 25.4337 58.9267C28.6003 59.196 32.6716 59.2 38.501 59.2C44.3304 59.2 48.4016 59.196 51.5682 58.9267C54.6751 58.6624 56.4676 58.1692 57.8288 57.4416C60.4265 56.0531 62.554 53.9256 63.9425 51.3279C64.6701 49.9667 65.1633 48.1742 65.4276 45.0673C65.612 42.8986 65.6721 40.3056 65.6916 37.0141C64.9068 36.821 64.2342 36.5043 63.6831 36.1934C63.2034 35.9227 62.7577 35.6223 62.3963 35.375C62.3189 35.3221 62.2447 35.2712 62.1738 35.2225C61.8871 35.0256 61.6455 34.8598 61.3874 34.6959C60.0952 33.8836 58.9872 33.155 57.8924 32.435C57.0204 31.8614 56.1566 31.2934 55.2147 30.6929C54.4424 30.2036 53.5784 29.5395 52.9906 28.6053L44.4872 35.2601C44.2409 35.4528 43.9443 35.5686 43.6346 35.5945C43.5903 35.5982 43.5458 35.6001 43.5011 35.6001H34.0453L21.4767 45.2683C21.1932 45.4863 20.8472 45.6015 20.4947 45.6C20.4026 45.5997 20.3101 45.5914 20.2182 45.5749L11.4961 44.0094Z" fill="#99CCFF"/>
<path d="M48.9429 27.7098C48.2949 27.6305 47.6276 27.487 47.0658 27.3518C46.2037 27.1445 45.3056 26.8849 44.5514 26.65C44.436 26.6144 44.3025 26.5747 44.1566 26.5312C43.5108 26.3391 42.6196 26.074 41.9586 25.765C41.5183 25.5591 40.815 25.1795 40.2364 24.4919C39.5506 23.677 39.1902 22.6044 39.3328 21.4473L39.3363 21.4193L39.3402 21.3914C39.5605 19.8316 40.6405 18.9141 41.2018 18.5088C41.8468 18.043 42.6093 17.6818 43.346 17.3881C51.3711 14.0228 56.7467 11.7728 59.4592 10.6758L59.4627 10.6744C60.3353 10.3227 61.1329 10.0027 61.8631 9.71168C60.7169 8.44219 59.3544 7.37286 57.83 6.55806C56.4688 5.83047 54.6763 5.33725 51.5694 5.07298C48.4028 4.80365 44.3316 4.7996 38.5022 4.7996C32.6728 4.7996 28.6015 4.80365 25.4349 5.07298C22.328 5.33725 20.5355 5.83047 19.1743 6.55806C16.5767 7.94652 14.4491 10.0741 13.0606 12.6717C12.3331 14.033 11.8398 15.8254 11.5756 18.9324C11.3062 22.0989 11.3022 26.1702 11.3022 31.9996C11.3022 35.4757 11.3036 38.3267 11.3619 40.7334L20.0878 42.2997L32.5265 32.7314C32.8062 32.5162 33.1492 32.3996 33.5021 32.3996H42.9504L48.9429 27.7098Z" fill="#EAF2FA"/>
<path fill-rule="evenodd" clip-rule="evenodd" d="M44.5541 20.351C52.6055 16.9747 57.9654 14.7313 60.6569 13.6428C68.3172 10.5553 69.9275 10.0222 70.9627 10C71.1927 10 71.6988 10.0444 72.0439 10.311C72.3199 10.5331 72.3889 10.8219 72.4349 11.044C72.4809 11.2661 72.527 11.7326 72.4809 12.088C72.0669 16.3083 70.2726 26.5483 69.3524 31.2573C68.9613 33.2564 68.2022 33.9228 67.4661 33.9894C65.8558 34.1227 64.6366 32.9677 63.0953 31.9903C60.6569 30.4577 59.2996 29.5025 56.9302 27.9921C54.1927 26.2595 55.9641 25.3044 57.5283 23.7495C57.9424 23.3497 65.0046 17.1302 65.1427 16.5749C65.1657 16.5082 65.1657 16.2417 65.0046 16.1084C64.8436 15.9751 64.6136 16.0196 64.4295 16.064C64.1765 16.1084 60.3118 18.5962 52.7895 23.5052C51.6853 24.2382 50.6961 24.5936 49.799 24.5714C48.8098 24.5492 46.9235 24.0383 45.4972 23.594C43.7719 23.0609 42.3917 22.7722 42.5067 21.8392C42.5757 21.3506 43.2658 20.8619 44.5541 20.351Z" fill="white"/>
<path fill-rule="evenodd" clip-rule="evenodd" d="M70.4959 35.9508C70.4656 44.8724 70.2169 49.7701 68.1748 53.5906C66.3388 57.0255 63.5255 59.8388 60.0906 61.6748C55.7404 64 49.9936 64 38.5 64C27.0064 64 21.2596 64 16.9094 61.6748C13.4745 59.8388 10.6612 57.0255 8.82525 53.5906C6.5 49.2404 6.5 43.4936 6.5 32C6.5 20.5064 6.5 14.7596 8.82525 10.4094C10.6612 6.97453 13.4745 4.16123 16.9094 2.32524C21.2596 0 27.0064 0 38.5 0C49.9936 0 55.7404 0 60.0906 2.32524C62.6426 3.6893 64.8515 5.59283 66.5714 7.88994C66.808 7.80364 67.029 7.7245 67.2359 7.652C68.7556 7.11943 69.8301 6.82357 70.894 6.80074L70.9283 6.8H70.9627C71.3343 6.8 72.7696 6.82809 74.0001 7.77855L74.0252 7.79797L74.0499 7.81787C75.2366 8.77275 75.4938 10.0304 75.5631 10.3691L75.5684 10.395C75.6625 10.8494 75.7534 11.6562 75.6619 12.4383C75.2245 16.8495 73.4096 27.18 72.493 31.871C72.2076 33.3297 71.6061 34.8966 70.4959 35.9508ZM38.5 59.2C32.6706 59.2 28.5993 59.196 25.4328 58.9266C22.3258 58.6623 20.5334 58.1691 19.1721 57.4415C16.5745 56.0531 14.4469 53.9255 13.0585 51.3279C12.3309 49.9666 11.8377 48.1742 11.5734 45.0672C11.5443 44.7255 11.5183 44.3732 11.4951 44.0093L20.2175 45.5748C20.6614 45.6545 21.1183 45.5432 21.4757 45.2682L34.0444 35.6H43.5002C43.8577 35.6 44.2048 35.4803 44.4863 35.26L52.9897 28.6052C53.5775 29.5394 54.4415 30.2035 55.2138 30.6929C56.1557 31.2933 57.0195 31.8614 57.8915 32.4349C58.9863 33.1549 60.0943 33.8836 61.3865 34.6959C61.6447 34.8598 61.886 35.0255 62.1729 35.2225C62.2438 35.2711 62.318 35.3221 62.3954 35.375C62.7568 35.6222 63.2025 35.9226 63.6822 36.1933C64.2333 36.5043 64.9059 36.821 65.6907 37.014C65.6712 40.3056 65.6111 42.8986 65.4267 45.0672C65.1624 48.1742 64.6692 49.9666 63.9416 51.3279C62.5531 53.9255 60.4256 56.0531 57.8279 57.4415C56.4667 58.1691 54.6742 58.6623 51.5673 58.9266C48.4007 59.196 44.3294 59.2 38.5 59.2ZM66.2451 33.8482C66.0606 33.7909 65.8793 33.7192 65.6997 33.6359C65.6997 33.6359 65.6997 33.6359 65.6997 33.6359C65.1322 33.3729 64.5825 32.9953 64.0042 32.5981C63.7106 32.3964 63.4096 32.1897 63.0953 31.9903C61.761 31.1517 60.7504 30.4859 59.7206 29.8075C58.8686 29.2462 58.0029 28.6759 56.9302 27.9921C55.1558 26.869 55.2757 26.0727 56.0058 25.2278C56.2467 24.9491 56.554 24.6651 56.8815 24.3623C57.0928 24.1671 57.3126 23.9639 57.5283 23.7495C57.6131 23.6676 57.9769 23.3415 58.503 22.8699C59.6642 21.829 61.616 20.0794 63.1041 18.6823C63.7224 18.1019 64.2607 17.5823 64.6289 17.1997L64.6886 17.1373C64.9576 16.8543 65.1227 16.6553 65.1426 16.5749C65.1656 16.5083 65.1656 16.2417 65.0046 16.1084C64.8436 15.9752 64.6135 16.0196 64.4295 16.064C64.3946 16.0701 64.2912 16.1226 64.119 16.2215C64.0824 16.2425 64.0427 16.2656 63.9999 16.2909C63.6221 16.5133 63.0025 16.8987 62.1403 17.4468C60.6605 18.3874 58.466 19.807 55.5529 21.7037L55.5176 21.7267C55.0084 22.0582 54.4772 22.4043 53.9242 22.7649L52.7895 23.5052C51.6853 24.2382 50.6961 24.5936 49.7989 24.5714C48.8098 24.5492 46.9234 24.0383 45.4972 23.594C45.4208 23.5704 45.345 23.5473 45.2701 23.5246L45.1571 23.4904L44.9209 23.4195C43.4759 22.9865 42.4048 22.6655 42.5067 21.8392C42.5757 21.3506 43.2658 20.8619 44.554 20.351L45.0937 20.1247C52.8454 16.8743 58.026 14.7067 60.6568 13.6428C61.8372 13.1671 62.8739 12.7521 63.7869 12.3901C65.8465 11.5738 67.2772 11.0279 68.3089 10.6668C69.7881 10.149 70.4468 10.0111 70.9627 10C71.1927 10 71.6988 10.0444 72.0438 10.311C72.3199 10.5331 72.3889 10.8219 72.4349 11.044C72.4809 11.2661 72.5269 11.7326 72.4809 12.088C72.0668 16.3083 70.2725 26.5483 69.3524 31.2573C69.0102 33.0065 68.3863 33.7354 67.7425 33.9349C67.6505 33.9634 67.5581 33.9811 67.4661 33.9894C67.4661 33.9894 67.4661 33.9894 67.4661 33.9894C67.4265 33.9927 67.3869 33.9952 67.3477 33.997C66.9616 34.0141 66.5975 33.9575 66.2451 33.8482ZM61.8611 9.71208C60.7148 8.44259 59.3523 7.37326 57.8279 6.55847C56.4667 5.83087 54.6742 5.33765 51.5673 5.07339C48.4007 4.80405 44.3294 4.8 38.5 4.8C32.6706 4.8 28.5993 4.80405 25.4328 5.07339C22.3258 5.33765 20.5334 5.83087 19.1721 6.55847C16.5745 7.94693 14.4469 10.0745 13.0585 12.6721C12.3309 14.0334 11.8377 15.8258 11.5734 18.9328C11.3041 22.0993 11.3 26.1706 11.3 32C11.3 35.4761 11.3014 38.3271 11.3597 40.7338L20.0859 42.3001L32.5247 32.7318C32.8044 32.5167 33.1473 32.4 33.5002 32.4H42.9485L48.9411 27.7102C48.293 27.6309 47.6256 27.4874 47.0637 27.3522C46.2016 27.1449 45.3035 26.8853 44.5493 26.6504C44.4338 26.6147 44.3003 26.575 44.1542 26.5316C43.5084 26.3395 42.6175 26.0744 41.9565 25.7654C41.5162 25.5595 40.8129 25.1799 40.2343 24.4923C39.5485 23.6774 39.188 22.6048 39.3307 21.4477L39.3341 21.4197L39.3381 21.3918C39.5584 19.832 40.6384 18.9145 41.1997 18.5092C41.8447 18.0434 42.6072 17.6822 43.3439 17.3885C51.369 14.0232 56.7446 11.7732 59.4572 10.6762L59.4606 10.6749C60.3332 10.3231 61.1309 10.0031 61.8611 9.71208ZM44.6437 19.9558C44.6442 19.9557 44.6524 19.9595 44.667 19.9677C44.6506 19.96 44.6433 19.9559 44.6437 19.9558Z" fill="#0777E7"/>
</svg>
