<svg width="22" height="22" viewBox="0 0 22 22" fill="none" xmlns="http://www.w3.org/2000/svg">
<circle cx="11" cy="11" r="7" stroke="#0080FF" stroke-width="2"/>
<circle cx="11" cy="11" r="4" stroke="#0080FF" stroke-width="1.4"/>
<path d="M10.0513 1.84605C10.3552 0.934354 11.6448 0.934354 11.9487 1.84605L12.5613 3.68377C12.7771 4.3313 12.2951 5 11.6126 5H10.3874C9.70487 5 9.2229 4.3313 9.43874 3.68377L10.0513 1.84605Z" fill="#0080FF"/>
<path d="M11.9487 20.154C11.6448 21.0656 10.3552 21.0656 10.0513 20.154L9.43874 18.3162C9.2229 17.6687 9.70487 17 10.3874 17L11.6126 17C12.2951 17 12.7771 17.6687 12.5613 18.3162L11.9487 20.154Z" fill="#0080FF"/>
<path d="M20.1539 10.0513C21.0656 10.3552 21.0656 11.6448 20.1539 11.9487L18.3162 12.5613C17.6687 12.7771 17 12.2951 17 11.6126L17 10.3874C17 9.70487 17.6687 9.2229 18.3162 9.43874L20.1539 10.0513Z" fill="#0080FF"/>
<path d="M1.84605 11.9487C0.934354 11.6448 0.934354 10.3552 1.84605 10.0513L3.68377 9.43874C4.3313 9.2229 5 9.70487 5 10.3874L5 11.6126C5 12.2951 4.3313 12.7771 3.68377 12.5613L1.84605 11.9487Z" fill="#0080FF"/>
<path d="M16.802 3.85644C17.6615 3.42666 18.5734 4.33853 18.1436 5.19808L17.2773 6.9307C16.9721 7.5412 16.1584 7.67324 15.6758 7.1906L14.8095 6.32428C14.3268 5.84164 14.4589 5.028 15.0694 4.72275L16.802 3.85644Z" fill="#0080FF"/>
<path d="M5.19802 18.1436C4.33847 18.5733 3.4266 17.6615 3.85638 16.8019L4.72269 15.0693C5.02794 14.4588 5.84159 14.3268 6.32423 14.8094L7.19054 15.6757C7.67318 16.1584 7.54114 16.972 6.93064 17.2772L5.19802 18.1436Z" fill="#0080FF"/>
<path d="M18.1436 16.8022C18.5733 17.6618 17.6615 18.5736 16.8019 18.1439L15.0693 17.2776C14.4588 16.9723 14.3268 16.1587 14.8094 15.676L15.6757 14.8097C16.1584 14.3271 16.972 14.4591 17.2772 15.0696L18.1436 16.8022Z" fill="#0080FF"/>
<path d="M3.85644 5.19778C3.42666 4.33822 4.33853 3.42636 5.19808 3.85614L6.9307 4.72245C7.5412 5.0277 7.67324 5.84134 7.19059 6.32398L6.32428 7.19029C5.84164 7.67294 5.028 7.5409 4.72275 6.9304L3.85644 5.19778Z" fill="#0080FF"/>
</svg>
