<svg width="15" height="14" viewBox="0 0 15 14" fill="none" xmlns="http://www.w3.org/2000/svg">
    <circle cx="7.71387" cy="7" r="4" stroke="#0080FF" stroke-width="2"/>
    <path d="M6.76518 0.84605C7.06908 -0.0656462 8.35865 -0.0656462 8.66255 0.84605L9.27512 2.68377C9.49097 3.3313 9.009 4 8.32644 4H7.10129C6.41874 4 5.93677 3.3313 6.15261 2.68377L6.76518 0.84605Z" fill="#0080FF"/>
    <path d="M6.76518 13.1539C7.06908 14.0656 8.35865 14.0656 8.66255 13.1539L9.27512 11.3162C9.49097 10.6687 9.009 10 8.32644 10H7.10129C6.41874 10 5.93677 10.6687 6.15261 11.3162L6.76518 13.1539Z" fill="#0080FF"/>
    <path d="M13.8678 6.05132C14.7795 6.35522 14.7795 7.64478 13.8678 7.94868L12.0301 8.56126C11.3826 8.7771 10.7139 8.29513 10.7139 7.61257L10.7139 6.38743C10.7139 5.70487 11.3826 5.2229 12.0301 5.43874L13.8678 6.05132Z" fill="#0080FF"/>
    <path d="M1.55992 6.05132C0.648221 6.35522 0.648221 7.64478 1.55992 7.94868L3.39764 8.56126C4.04517 8.7771 4.71387 8.29513 4.71387 7.61257L4.71387 6.38743C4.71387 5.70487 4.04517 5.2229 3.39764 5.43874L1.55992 6.05132Z" fill="#0080FF"/>
    <path d="M11.395 1.97753C12.2545 1.54776 13.1664 2.45962 12.7366 3.31917L11.8703 5.0518C11.5651 5.66229 10.7514 5.79433 10.2688 5.31169L9.40248 4.44538C8.91984 3.96274 9.05188 3.14909 9.66237 2.84384L11.395 1.97753Z" fill="#0080FF"/>
    <path d="M2.6914 10.6806C2.26162 11.5402 3.17349 12.4521 4.03304 12.0223L5.76566 11.156C6.37616 10.8507 6.5082 10.0371 6.02556 9.55444L5.15925 8.68812C4.6766 8.20548 3.86296 8.33752 3.55771 8.94802L2.6914 10.6806Z" fill="#0080FF"/>
    <path d="M12.7363 10.6806C13.1661 11.5402 12.2542 12.4521 11.3947 12.0223L9.66207 11.156C9.05157 10.8507 8.91954 10.0371 9.40218 9.55443L10.2685 8.68812C10.7511 8.20548 11.5648 8.33752 11.87 8.94802L12.7363 10.6806Z" fill="#0080FF"/>
    <path d="M4.03274 1.97753C3.17318 1.54776 2.26132 2.45962 2.6911 3.31917L3.55741 5.0518C3.86266 5.66229 4.6763 5.79433 5.15894 5.31169L6.02525 4.44538C6.5079 3.96274 6.37586 3.14909 5.76536 2.84384L4.03274 1.97753Z" fill="#0080FF"/>
</svg>
